<?xml version="1.0" standalone="no"?>
<!DOCTYPE svg PUBLIC "-//W3C//DTD SVG 20010904//EN"
 "http://www.w3.org/TR/2001/REC-SVG-20010904/DTD/svg10.dtd">
<svg version="1.0" xmlns="http://www.w3.org/2000/svg"
 width="353.000000pt" height="353.000000pt" viewBox="0 0 353.000000 353.000000"
 preserveAspectRatio="xMidYMid meet">
<metadata>
Created by potrace 1.14, written by Peter Selinger 2001-2017
</metadata>
<g transform="translate(0.000000,353.000000) scale(0.100000,-0.100000)"
fill="#000000" stroke="none">
<path d="M1145 2928 c-10 -6 -37 -13 -59 -15 -23 -2 -42 -8 -44 -13 -2 -6 -13
-10 -23 -10 -11 0 -18 -4 -14 -9 3 -5 -3 -12 -14 -16 -11 -3 -36 -24 -55 -45
-20 -22 -39 -40 -42 -40 -8 0 -34 -27 -34 -37 -1 -4 -19 -21 -40 -38 -21 -16
-39 -33 -40 -36 0 -10 -193 -199 -202 -199 -4 0 -8 -4 -8 -9 0 -12 -368 -381
-380 -381 -6 0 -9 -3 -8 -7 2 -7 -20 -32 -125 -140 -12 -13 -17 -23 -12 -23 6
0 4 -4 -3 -8 -7 -5 -15 -19 -17 -32 -2 -13 -8 -26 -13 -29 -12 -9 -15 -141 -3
-141 5 0 8 -9 6 -20 -2 -12 5 -30 15 -40 11 -11 20 -22 20 -25 0 -3 0 -12 0
-21 0 -8 4 -12 10 -9 5 3 10 1 10 -5 0 -14 455 -470 469 -470 6 0 10 -4 9 -8
-2 -4 16 -25 39 -47 23 -21 39 -43 36 -48 -3 -6 -1 -7 4 -4 6 4 28 -13 51 -38
22 -24 43 -41 46 -38 3 4 6 1 6 -4 0 -10 128 -142 178 -184 11 -9 21 -21 23
-25 6 -14 85 -74 97 -74 6 0 12 -5 14 -10 3 -9 32 -17 75 -19 6 -1 18 -7 25
-15 10 -10 20 -10 38 -3 28 11 37 14 65 20 33 8 97 47 129 78 17 16 33 29 36
29 4 0 13 11 20 25 7 14 19 25 27 25 7 0 13 4 13 9 0 11 160 171 171 171 5 0
9 4 9 10 0 11 110 120 122 120 14 0 47 -33 42 -42 -3 -4 0 -8 6 -8 14 0 150
-137 142 -144 -3 -3 0 -6 6 -6 6 0 58 -46 115 -103 58 -56 114 -109 127 -117
12 -8 28 -19 34 -25 6 -5 27 -12 46 -13 19 -2 37 -7 40 -11 5 -6 43 -7 55 -1
6 3 9 4 58 13 20 5 37 12 37 18 0 6 4 8 9 5 11 -7 62 37 189 164 58 58 109
104 114 102 5 -1 7 1 5 5 -3 5 49 60 115 123 332 321 554 550 579 599 37 73
35 177 -6 256 -16 30 -35 55 -42 55 -7 0 -13 4 -13 10 0 5 -81 90 -180 189
-99 99 -180 184 -180 190 0 6 -7 7 -17 4 -9 -4 -14 -2 -11 3 4 5 0 18 -8 29
-8 10 -14 15 -14 11 0 -4 -22 16 -50 46 -27 29 -50 56 -50 61 0 4 -4 7 -9 7
-11 0 -144 135 -149 150 -2 6 -8 10 -14 10 -13 0 -38 26 -38 40 0 6 -4 9 -8 6
-4 -2 -17 9 -27 25 -11 16 -26 29 -32 29 -7 0 -13 3 -13 8 0 20 -90 99 -141
124 -37 18 -147 39 -154 29 -2 -4 -21 -8 -42 -9 -21 -2 -39 -7 -41 -12 -2 -6
-9 -10 -15 -10 -19 0 -87 -52 -87 -66 0 -8 -4 -13 -8 -11 -4 1 -58 -48 -119
-110 -61 -62 -114 -109 -118 -105 -3 4 -5 2 -3 -3 5 -18 -129 -146 -146 -139
-9 3 -13 10 -10 15 3 5 0 9 -6 9 -14 0 -70 57 -62 64 3 3 0 6 -6 6 -12 0 -102
90 -102 102 0 4 -4 8 -9 8 -5 0 -36 27 -69 60 -32 33 -57 60 -55 60 2 0 -17
19 -44 41 -26 23 -50 45 -53 48 -11 13 -77 41 -110 47 -19 4 -42 10 -50 15 -9
4 -24 2 -35 -3z"/>
</g>
</svg>
